M48
; DRILL file {KiCad 9.0.4} date 2025-10-23T14:30:57+0100
; FORMAT={-:-/ absolute / inch / decimal}
; #@! TF.CreationDate,2025-10-23T14:30:57+01:00
; #@! TF.GenerationSoftware,Kicad,Pcbnew,9.0.4
; #@! TF.FileFunction,Plated,1,2,PTH
FMAT,2
INCH
; #@! TA.AperFunction,Plated,PTH,ViaDrill
T1C0.0118
; #@! TA.AperFunction,Plated,PTH,ComponentDrill
T2C0.0315
; #@! TA.AperFunction,Plated,PTH,ComponentDrill
T3C0.0394
%
G90
G05
T1
X4.7Y-2.52
X4.75Y-2.62
X5.24Y-2.65
T2
X4.28Y-3.33
X4.29Y-2.43
X4.29Y-2.59
X4.29Y-2.76
X4.29Y-2.94
X4.58Y-3.33
X4.59Y-2.43
X4.59Y-2.59
X4.59Y-2.76
X4.59Y-2.94
X4.89Y-3.03
X4.89Y-3.33
X5.1Y-3.03
X5.1Y-3.33
X5.39Y-2.17
X5.39Y-2.33
X5.69Y-2.17
X5.69Y-2.33
T3
X4.7Y-3.6
X4.8Y-3.6
X4.9Y-3.6
X5.0Y-3.6
X5.1Y-3.6
X5.2Y-3.6
X5.3Y-3.6
X5.87Y-2.33
X5.87Y-2.43
X5.88Y-2.7
X5.88Y-2.8
X5.88Y-2.9
M30
