%TF.GenerationSoftware,KiCad,Pcbnew,9.0.4*%
%TF.CreationDate,2025-10-23T14:30:59+01:00*%
%TF.ProjectId,First prototpye-rainbow-line,46697273-7420-4707-926f-746f74707965,rev?*%
%TF.SameCoordinates,Original*%
%TF.FileFunction,Copper,L1,Top*%
%TF.FilePolarity,Positive*%
%FSLAX46Y46*%
G04 Gerber Fmt 4.6, Leading zero omitted, Abs format (unit mm)*
G04 Created by KiCad (PCBNEW 9.0.4) date 2025-10-23 14:30:59*
%MOMM*%
%LPD*%
G01*
G04 APERTURE LIST*
G04 Aperture macros list*
%AMRoundRect*
0 Rectangle with rounded corners*
0 $1 Rounding radius*
0 $2 $3 $4 $5 $6 $7 $8 $9 X,Y pos of 4 corners*
0 Add a 4 corners polygon primitive as box body*
4,1,4,$2,$3,$4,$5,$6,$7,$8,$9,$2,$3,0*
0 Add four circle primitives for the rounded corners*
1,1,$1+$1,$2,$3*
1,1,$1+$1,$4,$5*
1,1,$1+$1,$6,$7*
1,1,$1+$1,$8,$9*
0 Add four rect primitives between the rounded corners*
20,1,$1+$1,$2,$3,$4,$5,0*
20,1,$1+$1,$4,$5,$6,$7,0*
20,1,$1+$1,$6,$7,$8,$9,0*
20,1,$1+$1,$8,$9,$2,$3,0*%
G04 Aperture macros list end*
%TA.AperFunction,ComponentPad*%
%ADD10C,1.600000*%
%TD*%
%TA.AperFunction,SMDPad,CuDef*%
%ADD11RoundRect,0.067500X-0.885000X-0.157500X0.885000X-0.157500X0.885000X0.157500X-0.885000X0.157500X0*%
%TD*%
%TA.AperFunction,ComponentPad*%
%ADD12R,1.700000X1.700000*%
%TD*%
%TA.AperFunction,ComponentPad*%
%ADD13C,1.700000*%
%TD*%
%TA.AperFunction,ViaPad*%
%ADD14C,0.600000*%
%TD*%
%TA.AperFunction,Conductor*%
%ADD15C,0.800000*%
%TD*%
%TA.AperFunction,Conductor*%
%ADD16C,0.400000*%
%TD*%
G04 APERTURE END LIST*
D10*
%TO.P,R14,1*%
%TO.N,+3V3*%
X129540000Y-84582000D03*
%TO.P,R14,2*%
%TO.N,Net-(J2-Pin_2)*%
X129540000Y-76962000D03*
%TD*%
%TO.P,R13,1*%
%TO.N,+3V3*%
X124206000Y-84582000D03*
%TO.P,R13,2*%
%TO.N,Net-(J2-Pin_1)*%
X124206000Y-76962000D03*
%TD*%
%TO.P,L1,1,1*%
%TO.N,Net-(U1-VREG)*%
X116586000Y-65786000D03*
%TO.P,L1,2,2*%
%TO.N,Net-(U1-SW)*%
X108966000Y-65786000D03*
%TD*%
%TO.P,C6,1*%
%TO.N,GND*%
X136906000Y-55118000D03*
%TO.P,C6,2*%
%TO.N,+12V*%
X144526000Y-55118000D03*
%TD*%
%TO.P,C5,1*%
%TO.N,GND*%
X108966000Y-74676000D03*
%TO.P,C5,2*%
%TO.N,Net-(U1-V3P3)*%
X116586000Y-74676000D03*
%TD*%
%TO.P,C4,1*%
%TO.N,GND*%
X108966000Y-70104000D03*
%TO.P,C4,2*%
%TO.N,Net-(U1-V1P8)*%
X116586000Y-70104000D03*
%TD*%
%TO.P,C3,1*%
%TO.N,GND*%
X108712000Y-84582000D03*
%TO.P,C3,2*%
%TO.N,Net-(U1-VREG)*%
X116332000Y-84582000D03*
%TD*%
%TO.P,C2,1*%
%TO.N,+12V*%
X144526000Y-59182000D03*
%TO.P,C2,2*%
%TO.N,Net-(U1-VCP)*%
X136906000Y-59182000D03*
%TD*%
%TO.P,C1,1*%
%TO.N,Net-(U1-CPN)*%
X108966000Y-61722000D03*
%TO.P,C1,2*%
%TO.N,Net-(U1-CPP)*%
X116586000Y-61722000D03*
%TD*%
D11*
%TO.P,U1,1,VCP*%
%TO.N,Net-(U1-VCP)*%
X124198000Y-60818000D03*
%TO.P,U1,2,CPP*%
%TO.N,Net-(U1-CPP)*%
X124198000Y-61468000D03*
%TO.P,U1,3,CPN*%
%TO.N,Net-(U1-CPN)*%
X124175818Y-62118000D03*
%TO.P,U1,4,SW*%
%TO.N,Net-(U1-SW)*%
X124175818Y-62758613D03*
%TO.P,U1,5,SWGND*%
%TO.N,GND*%
X124198000Y-63418000D03*
%TO.P,U1,6,VREG*%
%TO.N,Net-(U1-VREG)*%
X124198000Y-64068000D03*
%TO.P,U1,7,V1P8*%
%TO.N,Net-(U1-V1P8)*%
X124198000Y-64718000D03*
%TO.P,U1,8,GND*%
%TO.N,GND*%
X124198000Y-65368000D03*
%TO.P,U1,9,V3P3*%
%TO.N,Net-(U1-V3P3)*%
X124198000Y-66018000D03*
%TO.P,U1,10,SCL*%
%TO.N,Net-(J2-Pin_1)*%
X124198000Y-66668000D03*
%TO.P,U1,11,SDA*%
%TO.N,Net-(J2-Pin_2)*%
X124198000Y-67318000D03*
%TO.P,U1,12,FG*%
%TO.N,Net-(J2-Pin_3)*%
X124198000Y-67968000D03*
%TO.P,U1,13,SPEED*%
%TO.N,Net-(J2-Pin_4)*%
X130048000Y-67968000D03*
%TO.P,U1,14,DIR*%
%TO.N,Net-(J2-Pin_5)*%
X130048000Y-67318000D03*
%TO.P,U1,15,PGND*%
%TO.N,GND*%
X130048000Y-66668000D03*
%TO.P,U1,16,PGND*%
X130048000Y-66018000D03*
%TO.P,U1,17,U*%
%TO.N,Net-(J1-Pin_1)*%
X130048000Y-65368000D03*
%TO.P,U1,18,U*%
X130048000Y-64718000D03*
%TO.P,U1,19,V*%
%TO.N,Net-(J1-Pin_2)*%
X130048000Y-64068000D03*
%TO.P,U1,20,V*%
X130048000Y-63418000D03*
%TO.P,U1,21,W*%
%TO.N,Net-(J1-Pin_3)*%
X130025818Y-62758613D03*
%TO.P,U1,22,W*%
X130025818Y-62118000D03*
%TO.P,U1,23,VCC*%
%TO.N,+12V*%
X130048000Y-61468000D03*
%TO.P,U1,24,VCC*%
X130048000Y-60818000D03*
%TD*%
D12*
%TO.P,J3,1,Pin_1*%
%TO.N,GND*%
X149098000Y-61722000D03*
D13*
%TO.P,J3,2,Pin_2*%
%TO.N,+12V*%
X149098000Y-59182000D03*
%TD*%
D12*
%TO.P,J2,1,Pin_1*%
%TO.N,Net-(J2-Pin_1)*%
X119380000Y-91440000D03*
D13*
%TO.P,J2,2,Pin_2*%
%TO.N,Net-(J2-Pin_2)*%
X121920000Y-91440000D03*
%TO.P,J2,3,Pin_3*%
%TO.N,Net-(J2-Pin_3)*%
X124460000Y-91440000D03*
%TO.P,J2,4,Pin_4*%
%TO.N,Net-(J2-Pin_4)*%
X127000000Y-91440000D03*
%TO.P,J2,5,Pin_5*%
%TO.N,Net-(J2-Pin_5)*%
X129540000Y-91440000D03*
%TO.P,J2,6,Pin_6*%
%TO.N,GND*%
X132080000Y-91440000D03*
%TO.P,J2,7,Pin_7*%
%TO.N,+3V3*%
X134620000Y-91440000D03*
%TD*%
D12*
%TO.P,J1,1,Pin_1*%
%TO.N,Net-(J1-Pin_1)*%
X149352000Y-73660000D03*
D13*
%TO.P,J1,2,Pin_2*%
%TO.N,Net-(J1-Pin_2)*%
X149352000Y-71120000D03*
%TO.P,J1,3,Pin_3*%
%TO.N,Net-(J1-Pin_3)*%
X149352000Y-68580000D03*
%TD*%
D14*
%TO.N,GND*%
X133096000Y-67310000D03*
X120650000Y-66548000D03*
X119380000Y-64008000D03*
%TD*%
D15*
%TO.N,Net-(J1-Pin_3)*%
X149352000Y-68580000D02*
X146304000Y-68580000D01*
%TO.N,Net-(J1-Pin_2)*%
X148336000Y-70104000D02*
X149352000Y-71120000D01*
X143002000Y-70104000D02*
X148336000Y-70104000D01*
D16*
%TO.N,GND*%
X132454000Y-66668000D02*
X133096000Y-67310000D01*
X130048000Y-66668000D02*
X132454000Y-66668000D01*
X131804000Y-66018000D02*
X133096000Y-67310000D01*
X130048000Y-66018000D02*
X131804000Y-66018000D01*
X120650000Y-66460058D02*
X120650000Y-66548000D01*
X121742058Y-65368000D02*
X120650000Y-66460058D01*
X124198000Y-65368000D02*
X121742058Y-65368000D01*
%TO.N,Net-(U1-V1P8)*%
X116586000Y-69596000D02*
X116586000Y-70104000D01*
X121464000Y-64718000D02*
X116586000Y-69596000D01*
X124198000Y-64718000D02*
X121464000Y-64718000D01*
%TO.N,GND*%
X119970000Y-63418000D02*
X119380000Y-64008000D01*
X124198000Y-63418000D02*
X119970000Y-63418000D01*
%TO.N,Net-(J2-Pin_2)*%
X121920000Y-84582000D02*
X129540000Y-76962000D01*
X121920000Y-91440000D02*
X121920000Y-84582000D01*
%TO.N,Net-(J2-Pin_1)*%
X119380000Y-81788000D02*
X124206000Y-76962000D01*
X119380000Y-91440000D02*
X119380000Y-81788000D01*
%TO.N,Net-(U1-VREG)*%
X115385000Y-66987000D02*
X116586000Y-65786000D01*
X115385000Y-83635000D02*
X115385000Y-66987000D01*
X116332000Y-84582000D02*
X115385000Y-83635000D01*
%TO.N,Net-(J2-Pin_4)*%
X132427000Y-86013000D02*
X127000000Y-91440000D01*
X132427000Y-70347000D02*
X132427000Y-86013000D01*
X130048000Y-67968000D02*
X132427000Y-70347000D01*
%TO.N,Net-(J2-Pin_5)*%
X134874000Y-71087070D02*
X134874000Y-86106000D01*
X131104930Y-67318000D02*
X134874000Y-71087070D01*
X134874000Y-86106000D02*
X129540000Y-91440000D01*
X130048000Y-67318000D02*
X131104930Y-67318000D01*
%TO.N,Net-(U1-VCP)*%
X125834000Y-59182000D02*
X124198000Y-60818000D01*
X136906000Y-59182000D02*
X125834000Y-59182000D01*
D15*
%TO.N,+12V*%
X148590000Y-59182000D02*
X144526000Y-55118000D01*
D16*
X149098000Y-59182000D02*
X148590000Y-59182000D01*
D15*
X149098000Y-59182000D02*
X144526000Y-59182000D01*
D16*
X142890000Y-60818000D02*
X144526000Y-59182000D01*
X130048000Y-60818000D02*
X142890000Y-60818000D01*
D15*
X142240000Y-61468000D02*
X144526000Y-59182000D01*
D16*
X130048000Y-61468000D02*
X142240000Y-61468000D01*
%TO.N,Net-(J1-Pin_3)*%
X130025818Y-62118000D02*
X139842000Y-62118000D01*
X139842000Y-62118000D02*
X146304000Y-68580000D01*
D15*
X145288000Y-68580000D02*
X146304000Y-68580000D01*
D16*
X139466613Y-62758613D02*
X145288000Y-68580000D01*
X130025818Y-62758613D02*
X139466613Y-62758613D01*
%TO.N,Net-(J1-Pin_2)*%
X136316000Y-63418000D02*
X143002000Y-70104000D01*
X130048000Y-63418000D02*
X136316000Y-63418000D01*
X143002000Y-70104000D02*
X142240000Y-70104000D01*
X136204000Y-64068000D02*
X142240000Y-70104000D01*
X130048000Y-64068000D02*
X136204000Y-64068000D01*
%TO.N,Net-(J1-Pin_1)*%
X142494000Y-73660000D02*
X149352000Y-73660000D01*
X133552000Y-64718000D02*
X142494000Y-73660000D01*
X130048000Y-64718000D02*
X133552000Y-64718000D01*
D15*
X141478000Y-73660000D02*
X149352000Y-73660000D01*
D16*
X133186000Y-65368000D02*
X141478000Y-73660000D01*
X130048000Y-65368000D02*
X133186000Y-65368000D01*
%TO.N,Net-(J2-Pin_3)*%
X127000000Y-88900000D02*
X124460000Y-91440000D01*
X127000000Y-82042000D02*
X127000000Y-88900000D01*
X127254000Y-82042000D02*
X127000000Y-82042000D01*
X124206000Y-70866000D02*
X128524000Y-70866000D01*
X128524000Y-70866000D02*
X131826000Y-74168000D01*
X131826000Y-77470000D02*
X127254000Y-82042000D01*
X124198000Y-70858000D02*
X124206000Y-70866000D01*
X124198000Y-67968000D02*
X124198000Y-70858000D01*
X131826000Y-74168000D02*
X131826000Y-77470000D01*
%TO.N,Net-(J2-Pin_2)*%
X127000000Y-74422000D02*
X129540000Y-76962000D01*
X123698000Y-74422000D02*
X127000000Y-74422000D01*
X121412000Y-68676355D02*
X121412000Y-72136000D01*
X121412000Y-72136000D02*
X123698000Y-74422000D01*
X122770355Y-67318000D02*
X121412000Y-68676355D01*
X124198000Y-67318000D02*
X122770355Y-67318000D01*
%TO.N,Net-(J2-Pin_1)*%
X124206000Y-76708000D02*
X124206000Y-76962000D01*
X120654206Y-73156206D02*
X124206000Y-76708000D01*
X122570413Y-66668000D02*
X120654206Y-68584207D01*
X120654206Y-68584207D02*
X120654206Y-73156206D01*
X124198000Y-66668000D02*
X122570413Y-66668000D01*
%TO.N,Net-(U1-V3P3)*%
X116586000Y-71802471D02*
X116586000Y-74676000D01*
X121920000Y-66468471D02*
X116586000Y-71802471D01*
X121942000Y-66018000D02*
X121920000Y-66040000D01*
X121920000Y-66040000D02*
X121920000Y-66468471D01*
X124198000Y-66018000D02*
X121942000Y-66018000D01*
%TO.N,Net-(U1-VREG)*%
X121098000Y-64068000D02*
X124198000Y-64068000D01*
X119380000Y-65786000D02*
X121098000Y-64068000D01*
X116586000Y-65786000D02*
X119380000Y-65786000D01*
%TO.N,Net-(U1-SW)*%
X110768000Y-65786000D02*
X108966000Y-65786000D01*
X113030000Y-63524000D02*
X110768000Y-65786000D01*
X117356813Y-63524000D02*
X113030000Y-63524000D01*
X118122200Y-62758613D02*
X117356813Y-63524000D01*
X124175818Y-62758613D02*
X118122200Y-62758613D01*
%TO.N,Net-(U1-CPN)*%
X110167000Y-62923000D02*
X108966000Y-61722000D01*
X117083471Y-62923000D02*
X110167000Y-62923000D01*
X124175818Y-62118000D02*
X117888471Y-62118000D01*
X117888471Y-62118000D02*
X117083471Y-62923000D01*
%TO.N,Net-(U1-CPP)*%
X124198000Y-61468000D02*
X116840000Y-61468000D01*
X116840000Y-61468000D02*
X116586000Y-61722000D01*
%TD*%
%TA.AperFunction,Conductor*%
%TO.N,GND*%
G36*
X151080539Y-53352185D02*
G01*
X151126294Y-53404989D01*
X151137500Y-53456500D01*
X151137500Y-93609500D01*
X151117815Y-93676539D01*
X151065011Y-93722294D01*
X151013500Y-93733500D01*
X107050500Y-93733500D01*
X106983461Y-93713815D01*
X106937706Y-93661011D01*
X106926500Y-93609500D01*
X106926500Y-84479682D01*
X107412000Y-84479682D01*
X107412000Y-84684317D01*
X107444009Y-84886417D01*
X107507244Y-85081031D01*
X107600141Y-85263350D01*
X107600147Y-85263359D01*
X107632523Y-85307921D01*
X107632524Y-85307922D01*
X108312000Y-84628446D01*
X108312000Y-84634661D01*
X108339259Y-84736394D01*
X108391920Y-84827606D01*
X108466394Y-84902080D01*
X108557606Y-84954741D01*
X108659339Y-84982000D01*
X108665553Y-84982000D01*
X107986076Y-85661474D01*
X108030650Y-85693859D01*
X108212968Y-85786755D01*
X108407582Y-85849990D01*
X108609683Y-85882000D01*
X108814317Y-85882000D01*
X109016417Y-85849990D01*
X109211031Y-85786755D01*
X109393349Y-85693859D01*
X109437921Y-85661474D01*
X108758447Y-84982000D01*
X108764661Y-84982000D01*
X108866394Y-84954741D01*
X108957606Y-84902080D01*
X109032080Y-84827606D01*
X109084741Y-84736394D01*
X109112000Y-84634661D01*
X109112000Y-84628448D01*
X109791474Y-85307922D01*
X109791474Y-85307921D01*
X109823859Y-85263349D01*
X109916755Y-85081031D01*
X109979990Y-84886417D01*
X110012000Y-84684317D01*
X110012000Y-84479682D01*
X109979990Y-84277582D01*
X109916755Y-84082968D01*
X109823859Y-83900650D01*
X109791474Y-83856077D01*
X109791474Y-83856076D01*
X109112000Y-84535551D01*
X109112000Y-84529339D01*
X109084741Y-84427606D01*
X109032080Y-84336394D01*
X108957606Y-84261920D01*
X108866394Y-84209259D01*
X108764661Y-84182000D01*
X108758446Y-84182000D01*
X109437922Y-83502524D01*
X109437921Y-83502523D01*
X109393359Y-83470147D01*
X109393350Y-83470141D01*
X109211031Y-83377244D01*
X109016417Y-83314009D01*
X108814317Y-83282000D01*
X108609683Y-83282000D01*
X108407582Y-83314009D01*
X108212968Y-83377244D01*
X108030644Y-83470143D01*
X107986077Y-83502523D01*
X107986077Y-83502524D01*
X108665554Y-84182000D01*
X108659339Y-84182000D01*
X108557606Y-84209259D01*
X108466394Y-84261920D01*
X108391920Y-84336394D01*
X108339259Y-84427606D01*
X108312000Y-84529339D01*
X108312000Y-84535553D01*
X107632524Y-83856077D01*
X107632523Y-83856077D01*
X107600143Y-83900644D01*
X107507244Y-84082968D01*
X107444009Y-84277582D01*
X107412000Y-84479682D01*
X106926500Y-84479682D01*
X106926500Y-74573682D01*
X107666000Y-74573682D01*
X107666000Y-74778317D01*
X107698009Y-74980417D01*
X107761244Y-75175031D01*
X107854141Y-75357350D01*
X107854147Y-75357359D01*
X107886523Y-75401921D01*
X107886524Y-75401922D01*
X108566000Y-74722446D01*
X108566000Y-74728661D01*
X108593259Y-74830394D01*
X108645920Y-74921606D01*
X108720394Y-74996080D01*
X108811606Y-75048741D01*
X108913339Y-75076000D01*
X108919553Y-75076000D01*
X108240076Y-75755474D01*
X108284650Y-75787859D01*
X108466968Y-75880755D01*
X108661582Y-75943990D01*
X108863683Y-75976000D01*
X109068317Y-75976000D01*
X109270417Y-75943990D01*
X109465031Y-75880755D01*
X109647349Y-75787859D01*
X109691921Y-75755474D01*
X109012447Y-75076000D01*
X109018661Y-75076000D01*
X109120394Y-75048741D01*
X109211606Y-74996080D01*
X109286080Y-74921606D01*
X109338741Y-74830394D01*
X109366000Y-74728661D01*
X109366000Y-74722447D01*
X110045474Y-75401921D01*
X110077859Y-75357349D01*
X110170755Y-75175031D01*
X110233990Y-74980417D01*
X110266000Y-74778317D01*
X110266000Y-74573682D01*
X110233990Y-74371582D01*
X110170755Y-74176968D01*
X110077859Y-73994650D01*
X110045474Y-73950077D01*
X110045474Y-73950076D01*
X109366000Y-74629551D01*
X109366000Y-74623339D01*
X109338741Y-74521606D01*
X109286080Y-74430394D01*
X109211606Y-74355920D01*
X109120394Y-74303259D01*
X109018661Y-74276000D01*
X109012446Y-74276000D01*
X109691922Y-73596524D01*
X109691921Y-73596523D01*
X109647359Y-73564147D01*
X109647350Y-73564141D01*
X109465031Y-73471244D01*
X109270417Y-73408009D01*
X109068317Y-73376000D01*
X108863683Y-73376000D01*
X108661582Y-73408009D01*
X108466968Y-73471244D01*
X108284644Y-73564143D01*
X108240077Y-73596523D01*
X108240077Y-73596524D01*
X108919554Y-74276000D01*
X108913339Y-74276000D01*
X108811606Y-74303259D01*
X108720394Y-74355920D01*
X108645920Y-74430394D01*
X108593259Y-74521606D01*
X108566000Y-74623339D01*
X108566000Y-74629553D01*
X107886524Y-73950077D01*
X107886523Y-73950077D01*
X107854143Y-73994644D01*
X107761244Y-74176968D01*
X107698009Y-74371582D01*
X107666000Y-74573682D01*
X106926500Y-74573682D01*
X106926500Y-70001682D01*
X107666000Y-70001682D01*
X107666000Y-70206317D01*
X107698009Y-70408417D01*
X107761244Y-70603031D01*
X107854141Y-70785350D01*
X107854147Y-70785359D01*
X107886523Y-70829921D01*
X107886524Y-70829922D01*
X108566000Y-70150446D01*
X108566000Y-70156661D01*
X108593259Y-70258394D01*
X108645920Y-70349606D01*
X108720394Y-70424080D01*
X108811606Y-70476741D01*
X108913339Y-70504000D01*
X108919553Y-70504000D01*
X108240076Y-71183474D01*
X108284650Y-71215859D01*
X108466968Y-71308755D01*
X108661582Y-71371990D01*
X108863683Y-71404000D01*
X109068317Y-71404000D01*
X109270417Y-71371990D01*
X109465031Y-71308755D01*
X109647349Y-71215859D01*
X109691921Y-71183474D01*
X109012447Y-70504000D01*
X109018661Y-70504000D01*
X109120394Y-70476741D01*
X109211606Y-70424080D01*
X109286080Y-70349606D01*
X109338741Y-70258394D01*
X109366000Y-70156661D01*
X109366000Y-70150447D01*
X110045474Y-70829921D01*
X110077859Y-70785349D01*
X110170755Y-70603031D01*
X110233990Y-70408417D01*
X110266000Y-70206317D01*
X110266000Y-70001682D01*
X110233990Y-69799582D01*
X110170755Y-69604968D01*
X110077859Y-69422650D01*
X110045474Y-69378077D01*
X110045474Y-69378076D01*
X109366000Y-70057551D01*
X109366000Y-70051339D01*
X109338741Y-69949606D01*
X109286080Y-69858394D01*
X109211606Y-69783920D01*
X109120394Y-69731259D01*
X109018661Y-69704000D01*
X109012446Y-69704000D01*
X109691922Y-69024524D01*
X109691921Y-69024523D01*
X109647359Y-68992147D01*
X109647350Y-68992141D01*
X109465031Y-68899244D01*
X109270417Y-68836009D01*
X109068317Y-68804000D01*
X108863683Y-68804000D01*
X108661582Y-68836009D01*
X108466968Y-68899244D01*
X108284644Y-68992143D01*
X108240077Y-69024523D01*
X108240077Y-69024524D01*
X108919554Y-69704000D01*
X108913339Y-69704000D01*
X108811606Y-69731259D01*
X108720394Y-69783920D01*
X108645920Y-69858394D01*
X108593259Y-69949606D01*
X108566000Y-70051339D01*
X108566000Y-70057553D01*
X107886524Y-69378077D01*
X107886523Y-69378077D01*
X107854143Y-69422644D01*
X107761244Y-69604968D01*
X107698009Y-69799582D01*
X107666000Y-70001682D01*
X106926500Y-70001682D01*
X106926500Y-61619648D01*
X107665500Y-61619648D01*
X107665500Y-61824351D01*
X107697522Y-62026534D01*
X107760781Y-62221223D01*
X107818191Y-62333894D01*
X107841775Y-62380181D01*
X107853715Y-62403613D01*
X107974028Y-62569213D01*
X108118786Y-62713971D01*
X108256585Y-62814086D01*
X108284390Y-62834287D01*
X108400607Y-62893503D01*
X108466776Y-62927218D01*
X108466778Y-62927218D01*
X108466781Y-62927220D01*
X108571137Y-62961127D01*
X108661465Y-62990477D01*
X108762557Y-63006488D01*
X108863648Y-63022500D01*
X108863649Y-63022500D01*
X109068351Y-63022500D01*
X109068352Y-63022500D01*
X109185070Y-63004013D01*
X109254363Y-63012967D01*
X109292149Y-63038805D01*
X109622886Y-63369542D01*
X109681685Y-63428341D01*
X109720459Y-63467115D01*
X109835182Y-63543771D01*
X109835186Y-63543773D01*
X109835189Y-63543775D01*
X109909866Y-63574707D01*
X109962671Y-63596580D01*
X109989591Y-63601934D01*
X110086630Y-63621237D01*
X110098006Y-63623500D01*
X110098007Y-63623500D01*
X111640481Y-63623500D01*
X111707520Y-63643185D01*
X111753275Y-63695989D01*
X111763219Y-63765147D01*
X111734194Y-63828703D01*
X111728162Y-63835181D01*
X110514162Y-65049181D01*
X110452839Y-65082666D01*
X110426481Y-65085500D01*
X110127744Y-65085500D01*
X110060705Y-65065815D01*
X110027425Y-65034384D01*
X110023316Y-65028729D01*
X109957970Y-64938786D01*
X109957969Y-64938784D01*
X109813213Y-64794028D01*
X109647613Y-64673715D01*
X109647612Y-64673714D01*
X109647610Y-64673713D01*
X109590653Y-64644691D01*
X109465223Y-64580781D01*
X109270534Y-64517522D01*
X109095995Y-64489878D01*
X109068352Y-64485500D01*
X108863648Y-64485500D01*
X108839329Y-64489351D01*
X108661465Y-64517522D01*
X108466776Y-64580781D01*
X108284386Y-64673715D01*
X108118786Y-64794028D01*
X107974028Y-64938786D01*
X107853715Y-65104386D01*
X107760781Y-65286776D01*
X107697522Y-65481465D01*
X107665500Y-65683648D01*
X107665500Y-65888351D01*
X107697522Y-66090534D01*
X107760781Y-66285223D01*
X107800015Y-66362222D01*
X107849620Y-66459578D01*
X107853715Y-66467613D01*
X107974028Y-66633213D01*
X108118786Y-66777971D01*
X108235444Y-66862726D01*
X108284390Y-66898287D01*
X108400607Y-66957503D01*
X108466776Y-66991218D01*
X108466778Y-66991218D01*
X108466781Y-66991220D01*
X108531419Y-67012222D01*
X108661465Y-67054477D01*
X108762557Y-67070488D01*
X108863648Y-67086500D01*
X108863649Y-67086500D01*
X109068351Y-67086500D01*
X109068352Y-67086500D01*
X109270534Y-67054477D01*
X109465219Y-66991220D01*
X109647610Y-66898287D01*
X109740590Y-66830732D01*
X109813213Y-66777971D01*
X109813215Y-66777968D01*
X109813219Y-66777966D01*
X109957966Y-66633219D01*
X110027425Y-66537615D01*
X110082755Y-66494949D01*
X110127744Y-66486500D01*
X110836996Y-66486500D01*
X110956718Y-66462685D01*
X110972328Y-66459580D01*
X111036069Y-66433177D01*
X111099807Y-66406777D01*
X111099808Y-66406776D01*
X111099811Y-66406775D01*
X111214543Y-66330114D01*
X113283838Y-64260819D01*
X113345161Y-64227334D01*
X113371519Y-64224500D01*
X117425809Y-64224500D01*
X117516853Y-64206389D01*
X117561141Y-64197580D01*
X117624882Y-64171177D01*
X117688620Y-64144777D01*
X117688621Y-64144776D01*
X117688624Y-64144775D01*
X117803356Y-64068114D01*
X118376038Y-63495432D01*
X118437361Y-63461947D01*
X118463719Y-63459113D01*
X120416867Y-63459113D01*
X120483906Y-63478798D01*
X120529661Y-63531602D01*
X120539605Y-63600760D01*
X120510580Y-63664316D01*
X120504548Y-63670794D01*
X119126162Y-65049181D01*
X119064839Y-65082666D01*
X119038481Y-65085500D01*
X117747744Y-65085500D01*
X117680705Y-65065815D01*
X117647425Y-65034384D01*
X117643316Y-65028729D01*
X117577970Y-64938786D01*
X117577969Y-64938784D01*
X117433213Y-64794028D01*
X117267613Y-64673715D01*
X117267612Y-64673714D01*
X117267610Y-64673713D01*
X117210653Y-64644691D01*
X117085223Y-64580781D01*
X116890534Y-64517522D01*
X116715995Y-64489878D01*
X116688352Y-64485500D01*
X116483648Y-64485500D01*
X116459329Y-64489351D01*
X116281465Y-64517522D01*
X116086776Y-64580781D01*
X115904386Y-64673715D01*
X115738786Y-64794028D01*
X115594028Y-64938786D01*
X115473715Y-65104386D01*
X115380781Y-65286776D01*
X115317522Y-65481465D01*
X115289286Y-65659742D01*
X115285500Y-65683648D01*
X115285500Y-65888352D01*
X115292192Y-65930602D01*
X115303986Y-66005068D01*
X115295031Y-66074362D01*
X115269194Y-66112147D01*
X114840887Y-66540454D01*
X114764222Y-66655192D01*
X114711421Y-66782667D01*
X114711418Y-66782679D01*
X114685099Y-66914995D01*
X114685096Y-66915010D01*
X114684500Y-66918001D01*
X114684500Y-66918007D01*
X114684500Y-83566006D01*
X114684500Y-83703994D01*
X114684500Y-83703996D01*
X114684499Y-83703996D01*
X114711418Y-83839322D01*
X114711421Y-83839332D01*
X114764222Y-83966807D01*
X114840887Y-84081545D01*
X114840888Y-84081546D01*
X115015194Y-84255851D01*
X115048679Y-84317174D01*
X115049986Y-84362929D01*
X115031500Y-84479646D01*
X115031500Y-84684351D01*
X115063522Y-84886534D01*
X115126781Y-85081223D01*
X115190691Y-85206653D01*
X115219585Y-85263359D01*
X115219715Y-85263613D01*
X115340028Y-85429213D01*
X115484786Y-85573971D01*
X115639749Y-85686556D01*
X115650390Y-85694287D01*
X115766607Y-85753503D01*
X115832776Y-85787218D01*
X115832778Y-85787218D01*
X115832781Y-85787220D01*
X115920874Y-85815843D01*
X116027465Y-85850477D01*
X116128557Y-85866488D01*
X116229648Y-85882500D01*
X116229649Y-85882500D01*
X116434351Y-85882500D01*
X116434352Y-85882500D01*
X116636534Y-85850477D01*
X116831219Y-85787220D01*
X117013610Y-85694287D01*
X117106590Y-85626732D01*
X117179213Y-85573971D01*
X117179215Y-85573968D01*
X117179219Y-85573966D01*
X117323966Y-85429219D01*
X117323968Y-85429215D01*
X117323971Y-85429213D01*
X117376732Y-85356590D01*
X117444287Y-85263610D01*
X117537220Y-85081219D01*
X117600477Y-84886534D01*
X117632500Y-84684352D01*
X117632500Y-84479648D01*
X117616349Y-84377679D01*
X117600477Y-84277465D01*
X117554334Y-84135453D01*
X117537220Y-84082781D01*
X117537218Y-84082778D01*
X117537218Y-84082776D01*
X117444419Y-83900650D01*
X117444287Y-83900390D01*
X117412092Y-83856077D01*
X117323971Y-83734786D01*
X117179213Y-83590028D01*
X117013613Y-83469715D01*
X117013612Y-83469714D01*
X117013610Y-83469713D01*
X116956653Y-83440691D01*
X116831223Y-83376781D01*
X116636534Y-83313522D01*
X116461995Y-83285878D01*
X116434352Y-83281500D01*
X116229648Y-83281500D01*
X116228878Y-83281622D01*
X116228583Y-83281583D01*
X116224797Y-83281882D01*
X116224734Y-83281085D01*
X116159586Y-83272655D01*
X116106141Y-83227650D01*
X116085512Y-83160895D01*
X116085500Y-83159145D01*
X116085500Y-76051475D01*
X116105185Y-75984436D01*
X116157989Y-75938681D01*
X116227147Y-75928737D01*
X116247820Y-75933545D01*
X116281458Y-75944475D01*
X116281461Y-75944475D01*
X116281466Y-75944477D01*
X116483648Y-75976500D01*
X116483649Y-75976500D01*
X116688351Y-75976500D01*
X116688352Y-75976500D01*
X116890534Y-75944477D01*
X117085219Y-75881220D01*
X117267610Y-75788287D01*
X117398044Y-75693522D01*
X117433213Y-75667971D01*
X117433215Y-75667968D01*
X117433219Y-75667966D01*
X117577966Y-75523219D01*
X117577968Y-75523215D01*
X117577971Y-75523213D01*
X117630732Y-75450590D01*
X117698287Y-75357610D01*
X117791220Y-75175219D01*
X117854477Y-74980534D01*
X117886500Y-74778352D01*
X117886500Y-74573648D01*
X117868184Y-74458009D01*
X117854477Y-74371465D01*
X117809823Y-74234035D01*
X117791220Y-74176781D01*
X117791218Y-74176778D01*
X117791218Y-74176776D01*
X117698419Y-73994650D01*
X117698287Y-73994390D01*
X117666092Y-73950077D01*
X117577971Y-73828786D01*
X117433217Y-73684032D01*
X117433212Y-73684028D01*
X117337615Y-73614573D01*
X117294949Y-73559243D01*
X117286500Y-73514255D01*
X117286500Y-72143990D01*
X117306185Y-72076951D01*
X117322819Y-72056309D01*
X119742025Y-69637103D01*
X119803348Y-69603618D01*
X119873040Y-69608602D01*
X119928973Y-69650474D01*
X119953390Y-69715938D01*
X119953706Y-69724784D01*
X119953706Y-73087212D01*
X119953706Y-73225200D01*
X119953706Y-73225202D01*
X119953705Y-73225202D01*
X119980624Y-73360528D01*
X119980627Y-73360538D01*
X120033428Y-73488013D01*
X120110093Y-73602751D01*
X120110094Y-73602752D01*
X122939530Y-76432187D01*
X122973015Y-76493510D01*
X122969780Y-76558186D01*
X122937523Y-76657461D01*
X122937523Y-76657464D01*
X122905500Y-76859648D01*
X122905500Y-77064351D01*
X122923986Y-77181068D01*
X122915031Y-77250362D01*
X122889194Y-77288147D01*
X118835887Y-81341454D01*
X118817871Y-81368418D01*
X118782587Y-81421225D01*
X118759225Y-81456189D01*
X118759222Y-81456194D01*
X118706421Y-81583667D01*
X118706418Y-81583677D01*
X118679500Y-81719004D01*
X118679500Y-89965500D01*
X118659815Y-90032539D01*
X118607011Y-90078294D01*
X118555502Y-90089500D01*
X118482130Y-90089500D01*
X118482123Y-90089501D01*
X118422516Y-90095908D01*
X118287671Y-90146202D01*
X118287664Y-90146206D01*
X118172455Y-90232452D01*
X118172452Y-90232455D01*
X118086206Y-90347664D01*
X118086202Y-90347671D01*
X118035908Y-90482517D01*
X118029501Y-90542116D01*
X118029500Y-90542135D01*
X118029500Y-92337870D01*
X118029501Y-92337876D01*
X118035908Y-92397483D01*
X118086202Y-92532328D01*
X118086206Y-92532335D01*
X118172452Y-92647544D01*
X118172455Y-92647547D01*
X118287664Y-92733793D01*
X118287671Y-92733797D01*
X118422517Y-92784091D01*
X118422516Y-92784091D01*
X118429444Y-92784835D01*
X118482127Y-92790500D01*
X120277872Y-92790499D01*
X120337483Y-92784091D01*
X120472331Y-92733796D01*
X120587546Y-92647546D01*
X120673796Y-92532331D01*
X120722810Y-92400916D01*
X120764681Y-92344984D01*
X120830145Y-92320566D01*
X120898418Y-92335417D01*
X120926673Y-92356569D01*
X121040213Y-92470109D01*
X121212179Y-92595048D01*
X121212181Y-92595049D01*
X121212184Y-92595051D01*
X121401588Y-92691557D01*
X121603757Y-92757246D01*
X121813713Y-92790500D01*
X121813714Y-92790500D01*
X122026286Y-92790500D01*
X122026287Y-92790500D01*
X122236243Y-92757246D01*
X122438412Y-92691557D01*
X122627816Y-92595051D01*
X122714138Y-92532335D01*
X122799786Y-92470109D01*
X122799788Y-92470106D01*
X122799792Y-92470104D01*
X122950104Y-92319792D01*
X122950106Y-92319788D01*
X122950109Y-92319786D01*
X123075048Y-92147820D01*
X123075047Y-92147820D01*
X123075051Y-92147816D01*
X123079514Y-92139054D01*
X123127488Y-92088259D01*
X123195308Y-92071463D01*
X123261444Y-92093999D01*
X123300486Y-92139056D01*
X123304951Y-92147820D01*
X123429890Y-92319786D01*
X123580213Y-92470109D01*
X123752179Y-92595048D01*
X123752181Y-92595049D01*
X123752184Y-92595051D01*
X123941588Y-92691557D01*
X124143757Y-92757246D01*
X124353713Y-92790500D01*
X124353714Y-92790500D01*
X124566286Y-92790500D01*
X124566287Y-92790500D01*
X124776243Y-92757246D01*
X124978412Y-92691557D01*
X125167816Y-92595051D01*
X125254138Y-92532335D01*
X125339786Y-92470109D01*
X125339788Y-92470106D01*
X125339792Y-92470104D01*
X125490104Y-92319792D01*
X125490106Y-92319788D01*
X125490109Y-92319786D01*
X125615048Y-92147820D01*
X125615047Y-92147820D01*
X125615051Y-92147816D01*
X125619514Y-92139054D01*
X125667488Y-92088259D01*
X125735308Y-92071463D01*
X125801444Y-92093999D01*
X125840486Y-92139056D01*
X125844951Y-92147820D01*
X125969890Y-92319786D01*
X126120213Y-92470109D01*
X126292179Y-92595048D01*
X126292181Y-92595049D01*
X126292184Y-92595051D01*
X126481588Y-92691557D01*
X126683757Y-92757246D01*
X126893713Y-92790500D01*
X126893714Y-92790500D01*
X127106286Y-92790500D01*
X127106287Y-92790500D01*
X127316243Y-92757246D01*
X127518412Y-92691557D01*
X127707816Y-92595051D01*
X127794138Y-92532335D01*
X127879786Y-92470109D01*
X127879788Y-92470106D01*
X127879792Y-92470104D01*
X128030104Y-92319792D01*
X128030106Y-92319788D01*
X128030109Y-92319786D01*
X128155048Y-92147820D01*
X128155047Y-92147820D01*
X128155051Y-92147816D01*
X128159514Y-92139054D01*
X128207488Y-92088259D01*
X128275308Y-92071463D01*
X128341444Y-92093999D01*
X128380486Y-92139056D01*
X128384951Y-92147820D01*
X128509890Y-92319786D01*
X128660213Y-92470109D01*
X128832179Y-92595048D01*
X128832181Y-92595049D01*
X128832184Y-92595051D01*
X129021588Y-92691557D01*
X129223757Y-92757246D01*
X129433713Y-92790500D01*
X129433714Y-92790500D01*
X129646286Y-92790500D01*
X129646287Y-92790500D01*
X129856243Y-92757246D01*
X130058412Y-92691557D01*
X130247816Y-92595051D01*
X130334138Y-92532335D01*
X130419786Y-92470109D01*
X130419788Y-92470106D01*
X130419792Y-92470104D01*
X130570104Y-92319792D01*
X130570106Y-92319788D01*
X130570109Y-92319786D01*
X130655890Y-92201717D01*
X130695051Y-92147816D01*
X130699793Y-92138508D01*
X130747763Y-92087711D01*
X130815583Y-92070911D01*
X130881719Y-92093445D01*
X130920763Y-92138500D01*
X130925373Y-92147547D01*
X130964728Y-92201716D01*
X131597037Y-91569408D01*
X131614075Y-91632993D01*
X131679901Y-91747007D01*
X131772993Y-91840099D01*
X131887007Y-91905925D01*
X131950590Y-91922962D01*
X131318282Y-92555269D01*
X131318282Y-92555270D01*
X131372449Y-92594624D01*
X131561782Y-92691095D01*
X131763870Y-92756757D01*
X131973754Y-92790000D01*
X132186246Y-92790000D01*
X132396127Y-92756757D01*
X132396130Y-92756757D01*
X132598217Y-92691095D01*
X132787554Y-92594622D01*
X132841716Y-92555270D01*
X132841717Y-92555270D01*
X132209408Y-91922962D01*
X132272993Y-91905925D01*
X132387007Y-91840099D01*
X132480099Y-91747007D01*
X132545925Y-91632993D01*
X132562962Y-91569409D01*
X133195270Y-92201717D01*
X133195270Y-92201716D01*
X133234622Y-92147555D01*
X133239232Y-92138507D01*
X133287205Y-92087709D01*
X133355025Y-92070912D01*
X133421161Y-92093447D01*
X133460204Y-92138504D01*
X133464949Y-92147817D01*
X133589890Y-92319786D01*
X133740213Y-92470109D01*
X133912179Y-92595048D01*
X133912181Y-92595049D01*
X133912184Y-92595051D01*
X134101588Y-92691557D01*
X134303757Y-92757246D01*
X134513713Y-92790500D01*
X134513714Y-92790500D01*
X134726286Y-92790500D01*
X134726287Y-92790500D01*
X134936243Y-92757246D01*
X135138412Y-92691557D01*
X135327816Y-92595051D01*
X135414138Y-92532335D01*
X135499786Y-92470109D01*
X135499788Y-92470106D01*
X135499792Y-92470104D01*
X135650104Y-92319792D01*
X135650106Y-92319788D01*
X135650109Y-92319786D01*
X135775048Y-92147820D01*
X135775047Y-92147820D01*
X135775051Y-92147816D01*
X135871557Y-91958412D01*
X135937246Y-91756243D01*
X135970500Y-91546287D01*
X135970500Y-91333713D01*
X135937246Y-91123757D01*
X135871557Y-90921588D01*
X135775051Y-90732184D01*
X135775049Y-90732181D01*
X135775048Y-90732179D01*
X135650109Y-90560213D01*
X135499786Y-90409890D01*
X135327820Y-90284951D01*
X135138414Y-90188444D01*
X135138413Y-90188443D01*
X135138412Y-90188443D01*
X134936243Y-90122754D01*
X134936241Y-90122753D01*
X134936240Y-90122753D01*
X134774957Y-90097208D01*
X134726287Y-90089500D01*
X134513713Y-90089500D01*
X134465042Y-90097208D01*
X134303760Y-90122753D01*
X134101585Y-90188444D01*
X133912179Y-90284951D01*
X133740213Y-90409890D01*
X133589890Y-90560213D01*
X133464949Y-90732182D01*
X133460202Y-90741499D01*
X133412227Y-90792293D01*
X133344405Y-90809087D01*
X133278271Y-90786548D01*
X133239234Y-90741495D01*
X133234626Y-90732452D01*
X133195270Y-90678282D01*
X133195269Y-90678282D01*
X132562962Y-91310590D01*
X132545925Y-91247007D01*
X132480099Y-91132993D01*
X132387007Y-91039901D01*
X132272993Y-90974075D01*
X132209408Y-90957037D01*
X132841716Y-90324728D01*
X132787550Y-90285375D01*
X132598217Y-90188904D01*
X132396129Y-90123242D01*
X132186246Y-90090000D01*
X132180017Y-90090000D01*
X132112978Y-90070315D01*
X132067223Y-90017511D01*
X132057279Y-89948353D01*
X132086304Y-89884797D01*
X132092318Y-89878337D01*
X135418114Y-86552543D01*
X135494775Y-86437811D01*
X135547580Y-86310329D01*
X135547580Y-86310325D01*
X135547582Y-86310322D01*
X135552934Y-86283411D01*
X135552934Y-86283409D01*
X135574500Y-86174993D01*
X135574500Y-71018077D01*
X135571799Y-71004500D01*
X135547580Y-70882742D01*
X135547578Y-70882737D01*
X135494777Y-70755262D01*
X135418112Y-70640524D01*
X131551475Y-66773887D01*
X131494107Y-66735555D01*
X131436741Y-66697225D01*
X131398925Y-66681561D01*
X131344522Y-66637720D01*
X131322457Y-66571426D01*
X131339736Y-66503727D01*
X131390873Y-66456116D01*
X131446378Y-66443000D01*
X131496509Y-66443000D01*
X131496509Y-66442999D01*
X131485475Y-66359185D01*
X131485116Y-66329821D01*
X131501202Y-66179321D01*
X131512130Y-66152891D01*
X131520185Y-66125461D01*
X131525308Y-66121021D01*
X131527900Y-66114754D01*
X131551382Y-66098428D01*
X131572989Y-66079706D01*
X131580736Y-66078020D01*
X131585268Y-66074870D01*
X131597214Y-66074435D01*
X131624500Y-66068500D01*
X132844481Y-66068500D01*
X132911520Y-66088185D01*
X132932162Y-66104819D01*
X140551266Y-73723923D01*
X140584751Y-73785246D01*
X140585202Y-73787413D01*
X140612103Y-73922658D01*
X140612106Y-73922667D01*
X140679983Y-74086540D01*
X140679990Y-74086553D01*
X140778535Y-74234034D01*
X140778538Y-74234038D01*
X140903961Y-74359461D01*
X140903965Y-74359464D01*
X141051446Y-74458009D01*
X141051459Y-74458016D01*
X141112166Y-74483161D01*
X141215334Y-74525894D01*
X141215336Y-74525894D01*
X141215341Y-74525896D01*
X141389304Y-74560499D01*
X141389307Y-74560500D01*
X141389309Y-74560500D01*
X147900560Y-74560500D01*
X147967599Y-74580185D01*
X148013354Y-74632989D01*
X148016742Y-74641167D01*
X148058202Y-74752328D01*
X148058206Y-74752335D01*
X148144452Y-74867544D01*
X148144455Y-74867547D01*
X148259664Y-74953793D01*
X148259671Y-74953797D01*
X148394517Y-75004091D01*
X148394516Y-75004091D01*
X148401444Y-75004835D01*
X148454127Y-75010500D01*
X150249872Y-75010499D01*
X150309483Y-75004091D01*
X150444331Y-74953796D01*
X150559546Y-74867546D01*
X150645796Y-74752331D01*
X150696091Y-74617483D01*
X150702500Y-74557873D01*
X150702499Y-72762128D01*
X150696091Y-72702517D01*
X150687257Y-72678833D01*
X150645797Y-72567671D01*
X150645793Y-72567664D01*
X150559547Y-72452455D01*
X150559544Y-72452452D01*
X150444335Y-72366206D01*
X150444328Y-72366202D01*
X150312917Y-72317189D01*
X150256983Y-72275318D01*
X150232566Y-72209853D01*
X150247418Y-72141580D01*
X150268563Y-72113332D01*
X150382104Y-71999792D01*
X150507051Y-71827816D01*
X150603557Y-71638412D01*
X150669246Y-71436243D01*
X150702500Y-71226287D01*
X150702500Y-71013713D01*
X150669246Y-70803757D01*
X150603557Y-70601588D01*
X150507051Y-70412184D01*
X150507049Y-70412181D01*
X150507048Y-70412179D01*
X150382109Y-70240213D01*
X150231786Y-70089890D01*
X150059820Y-69964951D01*
X150059115Y-69964591D01*
X150051054Y-69960485D01*
X150000259Y-69912512D01*
X149983463Y-69844692D01*
X150005999Y-69778556D01*
X150051054Y-69739515D01*
X150059816Y-69735051D01*
X150102554Y-69704000D01*
X150231786Y-69610109D01*
X150231788Y-69610106D01*
X150231792Y-69610104D01*
X150382104Y-69459792D01*
X150382106Y-69459788D01*
X150382109Y-69459786D01*
X150507048Y-69287820D01*
X150507047Y-69287820D01*
X150507051Y-69287816D01*
X150603557Y-69098412D01*
X150669246Y-68896243D01*
X150702500Y-68686287D01*
X150702500Y-68473713D01*
X150669246Y-68263757D01*
X150603557Y-68061588D01*
X150507051Y-67872184D01*
X150507049Y-67872181D01*
X150507048Y-67872179D01*
X150382109Y-67700213D01*
X150231786Y-67549890D01*
X150059820Y-67424951D01*
X149870414Y-67328444D01*
X149870413Y-67328443D01*
X149870412Y-67328443D01*
X149668243Y-67262754D01*
X149668241Y-67262753D01*
X149668240Y-67262753D01*
X149506957Y-67237208D01*
X149458287Y-67229500D01*
X149245713Y-67229500D01*
X149197042Y-67237208D01*
X149035760Y-67262753D01*
X148833585Y-67328444D01*
X148644179Y-67424951D01*
X148472213Y-67549890D01*
X148472209Y-67549894D01*
X148378923Y-67643181D01*
X148317600Y-67676666D01*
X148291242Y-67679500D01*
X146445519Y-67679500D01*
X146378480Y-67659815D01*
X146357838Y-67643181D01*
X141094838Y-62380181D01*
X141061353Y-62318858D01*
X141066337Y-62249166D01*
X141108209Y-62193233D01*
X141173673Y-62168816D01*
X141182519Y-62168500D01*
X141629899Y-62168500D01*
X141696938Y-62188185D01*
X141698789Y-62189397D01*
X141813454Y-62266013D01*
X141895393Y-62299953D01*
X141977334Y-62333895D01*
X142151303Y-62368499D01*
X142151307Y-62368500D01*
X142151308Y-62368500D01*
X142328693Y-62368500D01*
X142328694Y-62368499D01*
X142502666Y-62333895D01*
X142666547Y-62266012D01*
X142814036Y-62167464D01*
X142978027Y-62003473D01*
X143148544Y-61832957D01*
X144462681Y-60518819D01*
X144524004Y-60485334D01*
X144550362Y-60482500D01*
X144628351Y-60482500D01*
X144628352Y-60482500D01*
X144830534Y-60450477D01*
X145025219Y-60387220D01*
X145207610Y-60294287D01*
X145320726Y-60212104D01*
X145373213Y-60173971D01*
X145373215Y-60173968D01*
X145373219Y-60173966D01*
X145428366Y-60118819D01*
X145489689Y-60085334D01*
X145516047Y-60082500D01*
X148037242Y-60082500D01*
X148066682Y-60091144D01*
X148096669Y-60097668D01*
X148101684Y-60101422D01*
X148104281Y-60102185D01*
X148124923Y-60118819D01*
X148181818Y-60175714D01*
X148215303Y-60237037D01*
X148210319Y-60306729D01*
X148168447Y-60362662D01*
X148137471Y-60379577D01*
X148005912Y-60428646D01*
X148005906Y-60428649D01*
X147890812Y-60514809D01*
X147890809Y-60514812D01*
X147804649Y-60629906D01*
X147804645Y-60629913D01*
X147754403Y-60764620D01*
X147754401Y-60764627D01*
X147748000Y-60824155D01*
X147748000Y-61472000D01*
X148664988Y-61472000D01*
X148632075Y-61529007D01*
X148598000Y-61656174D01*
X148598000Y-61787826D01*
X148632075Y-61914993D01*
X148664988Y-61972000D01*
X147748000Y-61972000D01*
X147748000Y-62619844D01*
X147754401Y-62679372D01*
X147754403Y-62679379D01*
X147804645Y-62814086D01*
X147804649Y-62814093D01*
X147890809Y-62929187D01*
X147890812Y-62929190D01*
X148005906Y-63015350D01*
X148005913Y-63015354D01*
X148140620Y-63065596D01*
X148140627Y-63065598D01*
X148200155Y-63071999D01*
X148200172Y-63072000D01*
X148848000Y-63072000D01*
X148848000Y-62155012D01*
X148905007Y-62187925D01*
X149032174Y-62222000D01*
X149163826Y-62222000D01*
X149290993Y-62187925D01*
X149348000Y-62155012D01*
X149348000Y-63072000D01*
X149995828Y-63072000D01*
X149995844Y-63071999D01*
X150055372Y-63065598D01*
X150055379Y-63065596D01*
X150190086Y-63015354D01*
X150190093Y-63015350D01*
X150305187Y-62929190D01*
X150305190Y-62929187D01*
X150391350Y-62814093D01*
X150391354Y-62814086D01*
X150441596Y-62679379D01*
X150441598Y-62679372D01*
X150447999Y-62619844D01*
X150448000Y-62619827D01*
X150448000Y-61972000D01*
X149531012Y-61972000D01*
X149563925Y-61914993D01*
X149598000Y-61787826D01*
X149598000Y-61656174D01*
X149563925Y-61529007D01*
X149531012Y-61472000D01*
X150448000Y-61472000D01*
X150448000Y-60824172D01*
X150447999Y-60824155D01*
X150441598Y-60764627D01*
X150441596Y-60764620D01*
X150391354Y-60629913D01*
X150391350Y-60629906D01*
X150305190Y-60514812D01*
X150305187Y-60514809D01*
X150190093Y-60428649D01*
X150190088Y-60428646D01*
X150058528Y-60379577D01*
X150002595Y-60337705D01*
X149978178Y-60272241D01*
X149993030Y-60203968D01*
X150014175Y-60175720D01*
X150128104Y-60061792D01*
X150253051Y-59889816D01*
X150349557Y-59700412D01*
X150415246Y-59498243D01*
X150448500Y-59288287D01*
X150448500Y-59075713D01*
X150415246Y-58865757D01*
X150349557Y-58663588D01*
X150253051Y-58474184D01*
X150253049Y-58474181D01*
X150253048Y-58474179D01*
X150128109Y-58302213D01*
X149977786Y-58151890D01*
X149805820Y-58026951D01*
X149616414Y-57930444D01*
X149616413Y-57930443D01*
X149616412Y-57930443D01*
X149414243Y-57864754D01*
X149414241Y-57864753D01*
X149414240Y-57864753D01*
X149252957Y-57839208D01*
X149204287Y-57831500D01*
X148991713Y-57831500D01*
X148921727Y-57842584D01*
X148781755Y-57864754D01*
X148781752Y-57864754D01*
X148676275Y-57899026D01*
X148606433Y-57901021D01*
X148550276Y-57868776D01*
X145862819Y-55181319D01*
X145829334Y-55119996D01*
X145826500Y-55093638D01*
X145826500Y-55015648D01*
X145794477Y-54813465D01*
X145763458Y-54718000D01*
X145731220Y-54618781D01*
X145731218Y-54618778D01*
X145731218Y-54618776D01*
X145638419Y-54436650D01*
X145638287Y-54436390D01*
X145606092Y-54392077D01*
X145517971Y-54270786D01*
X145373213Y-54126028D01*
X145207613Y-54005715D01*
X145207612Y-54005714D01*
X145207610Y-54005713D01*
X145150653Y-53976691D01*
X145025223Y-53912781D01*
X144830534Y-53849522D01*
X144655995Y-53821878D01*
X144628352Y-53817500D01*
X144423648Y-53817500D01*
X144399329Y-53821351D01*
X144221465Y-53849522D01*
X144026776Y-53912781D01*
X143844386Y-54005715D01*
X143678786Y-54126028D01*
X143534028Y-54270786D01*
X143413715Y-54436386D01*
X143320781Y-54618776D01*
X143257522Y-54813465D01*
X143225500Y-55015648D01*
X143225500Y-55220351D01*
X143257522Y-55422534D01*
X143320781Y-55617223D01*
X143384691Y-55742653D01*
X143413585Y-55799359D01*
X143413715Y-55799613D01*
X143534028Y-55965213D01*
X143678786Y-56109971D01*
X143799226Y-56197474D01*
X143844390Y-56230287D01*
X143960607Y-56289503D01*
X144026776Y-56323218D01*
X144026778Y-56323218D01*
X144026781Y-56323220D01*
X144131137Y-56357127D01*
X144221465Y-56386477D01*
X144322557Y-56402488D01*
X144423648Y-56418500D01*
X144501638Y-56418500D01*
X144568677Y-56438185D01*
X144589319Y-56454819D01*
X146204319Y-58069819D01*
X146237804Y-58131142D01*
X146232820Y-58200834D01*
X146190948Y-58256767D01*
X146125484Y-58281184D01*
X146116638Y-58281500D01*
X145516047Y-58281500D01*
X145449008Y-58261815D01*
X145428366Y-58245181D01*
X145373213Y-58190028D01*
X145207613Y-58069715D01*
X145207612Y-58069714D01*
X145207610Y-58069713D01*
X145123681Y-58026949D01*
X145025223Y-57976781D01*
X144830534Y-57913522D01*
X144655995Y-57885878D01*
X144628352Y-57881500D01*
X144423648Y-57881500D01*
X144399329Y-57885351D01*
X144221465Y-57913522D01*
X144026776Y-57976781D01*
X143844386Y-58069715D01*
X143678786Y-58190028D01*
X143534028Y-58334786D01*
X143413715Y-58500386D01*
X143320781Y-58682776D01*
X143257522Y-58877465D01*
X143225500Y-59079648D01*
X143225500Y-59157638D01*
X143205815Y-59224677D01*
X143189181Y-59245319D01*
X142353319Y-60081181D01*
X142291996Y-60114666D01*
X142265638Y-60117500D01*
X138077190Y-60117500D01*
X138010151Y-60097815D01*
X137964396Y-60045011D01*
X137954452Y-59975853D01*
X137976871Y-59920616D01*
X138004563Y-59882500D01*
X138018287Y-59863610D01*
X138111220Y-59681219D01*
X138174477Y-59486534D01*
X138206500Y-59284352D01*
X138206500Y-59079648D01*
X138174477Y-58877466D01*
X138170673Y-58865760D01*
X138111218Y-58682776D01*
X138033523Y-58530293D01*
X138018287Y-58500390D01*
X138004563Y-58481500D01*
X137897971Y-58334786D01*
X137753213Y-58190028D01*
X137587613Y-58069715D01*
X137587612Y-58069714D01*
X137587610Y-58069713D01*
X137503681Y-58026949D01*
X137405223Y-57976781D01*
X137210534Y-57913522D01*
X137035995Y-57885878D01*
X137008352Y-57881500D01*
X136803648Y-57881500D01*
X136779329Y-57885351D01*
X136601465Y-57913522D01*
X136406776Y-57976781D01*
X136224386Y-58069715D01*
X136058786Y-58190028D01*
X135914030Y-58334784D01*
X135844575Y-58430384D01*
X135789245Y-58473051D01*
X135744256Y-58481500D01*
X125765003Y-58481500D01*
X125656590Y-58503065D01*
X125656589Y-58503065D01*
X125643131Y-58505742D01*
X125629673Y-58508419D01*
X125629671Y-58508420D01*
X125576866Y-58530292D01*
X125576864Y-58530293D01*
X125576863Y-58530292D01*
X125502191Y-58561223D01*
X125432240Y-58607964D01*
X125432239Y-58607965D01*
X125387454Y-58637888D01*
X125387453Y-58637889D01*
X123969160Y-60056181D01*
X123907837Y-60089666D01*
X123881479Y-60092500D01*
X123275770Y-60092500D01*
X123164730Y-60107117D01*
X123164718Y-60107121D01*
X123026553Y-60164350D01*
X123026552Y-60164350D01*
X122907898Y-60255398D01*
X122816850Y-60374052D01*
X122816850Y-60374053D01*
X122759621Y-60512218D01*
X122759619Y-60512223D01*
X122758751Y-60518819D01*
X122745001Y-60623270D01*
X122745000Y-60623279D01*
X122745000Y-60643500D01*
X122725315Y-60710539D01*
X122672511Y-60756294D01*
X122621000Y-60767500D01*
X117522047Y-60767500D01*
X117455008Y-60747815D01*
X117434366Y-60731181D01*
X117433213Y-60730028D01*
X117267613Y-60609715D01*
X117267612Y-60609714D01*
X117267610Y-60609713D01*
X117210653Y-60580691D01*
X117085223Y-60516781D01*
X116890534Y-60453522D01*
X116715995Y-60425878D01*
X116688352Y-60421500D01*
X116483648Y-60421500D01*
X116459329Y-60425351D01*
X116281465Y-60453522D01*
X116086776Y-60516781D01*
X115904386Y-60609715D01*
X115738786Y-60730028D01*
X115594028Y-60874786D01*
X115473715Y-61040386D01*
X115380781Y-61222776D01*
X115317522Y-61417465D01*
X115285500Y-61619648D01*
X115285500Y-61824351D01*
X115317523Y-62026535D01*
X115317524Y-62026542D01*
X115328455Y-62060183D01*
X115330450Y-62130024D01*
X115294369Y-62189856D01*
X115231668Y-62220684D01*
X115210524Y-62222500D01*
X110508518Y-62222500D01*
X110479077Y-62213855D01*
X110449091Y-62207332D01*
X110444075Y-62203577D01*
X110441479Y-62202815D01*
X110420837Y-62186181D01*
X110282805Y-62048149D01*
X110249320Y-61986826D01*
X110248013Y-61941070D01*
X110252143Y-61914993D01*
X110266500Y-61824352D01*
X110266500Y-61619648D01*
X110252144Y-61529007D01*
X110234477Y-61417465D01*
X110171218Y-61222776D01*
X110120775Y-61123778D01*
X110078287Y-61040390D01*
X110058188Y-61012726D01*
X109957971Y-60874786D01*
X109813213Y-60730028D01*
X109647613Y-60609715D01*
X109647612Y-60609714D01*
X109647610Y-60609713D01*
X109590653Y-60580691D01*
X109465223Y-60516781D01*
X109270534Y-60453522D01*
X109095995Y-60425878D01*
X109068352Y-60421500D01*
X108863648Y-60421500D01*
X108839329Y-60425351D01*
X108661465Y-60453522D01*
X108466776Y-60516781D01*
X108284386Y-60609715D01*
X108118786Y-60730028D01*
X107974028Y-60874786D01*
X107853715Y-61040386D01*
X107760781Y-61222776D01*
X107697522Y-61417465D01*
X107665500Y-61619648D01*
X106926500Y-61619648D01*
X106926500Y-55015682D01*
X135606000Y-55015682D01*
X135606000Y-55220317D01*
X135638009Y-55422417D01*
X135701244Y-55617031D01*
X135794141Y-55799350D01*
X135794147Y-55799359D01*
X135826523Y-55843921D01*
X135826524Y-55843922D01*
X136506000Y-55164446D01*
X136506000Y-55170661D01*
X136533259Y-55272394D01*
X136585920Y-55363606D01*
X136660394Y-55438080D01*
X136751606Y-55490741D01*
X136853339Y-55518000D01*
X136859553Y-55518000D01*
X136180076Y-56197474D01*
X136224650Y-56229859D01*
X136406968Y-56322755D01*
X136601582Y-56385990D01*
X136803683Y-56418000D01*
X137008317Y-56418000D01*
X137210417Y-56385990D01*
X137405031Y-56322755D01*
X137587349Y-56229859D01*
X137631921Y-56197474D01*
X136952447Y-55518000D01*
X136958661Y-55518000D01*
X137060394Y-55490741D01*
X137151606Y-55438080D01*
X137226080Y-55363606D01*
X137278741Y-55272394D01*
X137306000Y-55170661D01*
X137306000Y-55164447D01*
X137985474Y-55843921D01*
X138017859Y-55799349D01*
X138110755Y-55617031D01*
X138173990Y-55422417D01*
X138206000Y-55220317D01*
X138206000Y-55015682D01*
X138173990Y-54813582D01*
X138110755Y-54618968D01*
X138017859Y-54436650D01*
X137985474Y-54392077D01*
X137985474Y-54392076D01*
X137306000Y-55071551D01*
X137306000Y-55065339D01*
X137278741Y-54963606D01*
X137226080Y-54872394D01*
X137151606Y-54797920D01*
X137060394Y-54745259D01*
X136958661Y-54718000D01*
X136952446Y-54718000D01*
X137631922Y-54038524D01*
X137631921Y-54038523D01*
X137587359Y-54006147D01*
X137587350Y-54006141D01*
X137405031Y-53913244D01*
X137210417Y-53850009D01*
X137008317Y-53818000D01*
X136803683Y-53818000D01*
X136601582Y-53850009D01*
X136406968Y-53913244D01*
X136224644Y-54006143D01*
X136180077Y-54038523D01*
X136180077Y-54038524D01*
X136859554Y-54718000D01*
X136853339Y-54718000D01*
X136751606Y-54745259D01*
X136660394Y-54797920D01*
X136585920Y-54872394D01*
X136533259Y-54963606D01*
X136506000Y-55065339D01*
X136506000Y-55071553D01*
X135826524Y-54392077D01*
X135826523Y-54392077D01*
X135794143Y-54436644D01*
X135701244Y-54618968D01*
X135638009Y-54813582D01*
X135606000Y-55015682D01*
X106926500Y-55015682D01*
X106926500Y-53456500D01*
X106946185Y-53389461D01*
X106998989Y-53343706D01*
X107050500Y-53332500D01*
X151013500Y-53332500D01*
X151080539Y-53352185D01*
G37*
%TD.AperFunction*%
%TD*%
%TA.AperFunction,Conductor*%
%TO.N,GND*%
G36*
X128270000Y-67818000D02*
G01*
X125984000Y-67818000D01*
X125984000Y-61214000D01*
X128270000Y-61214000D01*
X128270000Y-67818000D01*
G37*
%TD.AperFunction*%
%TD*%
M02*
